<?xml version="1.0" encoding="UTF-8" standalone="no"?><!-- Generator: Gravit.io --><svg xmlns="http://www.w3.org/2000/svg" xmlns:xlink="http://www.w3.org/1999/xlink" style="isolation:isolate" viewBox="0 0 800 800" width="800pt" height="800pt"><defs><clipPath id="_clipPath_rWTokH4wSoWV8mwtcJDuklylrpTGNB1T"><rect width="800" height="800"/></clipPath></defs><g clip-path="url(#_clipPath_rWTokH4wSoWV8mwtcJDuklylrpTGNB1T)"><path d=" M 149.835 232.201 L 194.778 154.953 L 239.721 77.705 C 241.588 74.496 246.023 71.137 249.618 70.209 L 336.424 47.801 L 423.23 25.393 C 426.825 24.465 432.344 25.235 435.548 27.112 L 513.391 72.707 L 591.234 118.302 C 594.437 120.179 597.817 124.614 598.776 128.201 L 622.014 215.081 L 645.252 301.961 C 646.211 305.548 645.474 311.065 643.607 314.274 L 598.664 391.522 L 553.72 468.77 C 551.853 471.979 547.419 475.337 543.824 476.265 L 457.018 498.673 L 370.212 521.081 C 366.617 522.009 361.098 521.239 357.894 519.362 L 280.051 473.767 L 202.208 428.172 C 199.005 426.296 195.625 421.86 194.666 418.274 L 171.428 331.394 L 148.19 244.513 C 147.231 240.927 147.968 235.41 149.835 232.201 Z " fill="rgb(48,53,93)"/><path d=" M 408.449 125.953 C 470.24 142.516 516.248 198.822 517.262 266.338 C 518.484 347.744 452.326 416.379 371.478 417.593 C 290.631 418.807 223.998 353.698 222.776 272.292 C 221.554 190.886 287.711 122.251 368.559 121.038 C 382.353 120.83 395.734 122.554 408.449 125.953 L 364.65 242.093 L 408.449 125.953 Z " fill="rgb(140,172,221)"/><path d=" M 355.804 95.276 C 450.026 93.862 527.682 169.741 529.106 264.614 C 530.53 359.487 453.678 439.218 359.456 440.632 C 265.233 442.047 187.578 366.168 186.154 271.295 C 184.73 176.422 261.581 96.691 355.804 95.276 Z  M 356.013 109.227 C 441.463 107.945 511.905 177.68 513.213 264.852 C 514.522 352.032 444.696 425.399 359.246 426.688 C 273.796 427.971 203.355 358.236 202.046 271.056 C 200.738 183.884 270.563 110.51 356.013 109.227 Z " fill-rule="evenodd" fill="rgb(190,216,255)"/><g style="mix-blend-mode:hard-light;"><path d=" M 509.278 157.627 L 540.994 176.219 L 572.71 194.812 C 575.723 196.578 578.868 200.759 579.73 204.143 L 588.832 239.892 L 597.935 275.641 C 598.797 279.025 598.055 284.215 596.281 287.222 L 577.403 319.209 L 558.526 351.195 C 556.751 354.203 552.569 357.368 549.192 358.259 L 513.402 367.706 L 477.611 377.153 C 474.235 378.044 469.047 377.334 466.035 375.568 L 434.319 356.975 L 402.603 338.383 C 399.59 336.617 396.445 332.435 395.583 329.051 L 386.481 293.302 L 377.378 257.553 C 376.516 254.169 377.257 248.98 379.032 245.972 L 397.91 213.986 L 416.787 181.999 C 418.562 178.992 422.744 175.826 426.121 174.935 L 461.911 165.488 L 497.702 156.042 C 501.078 155.15 506.266 155.861 509.278 157.627 Z " fill="rgb(222,128,96)"/></g><text transform="matrix(11.151,0,0,11.151,13,709.748)" style="font-family:'Alice';font-weight:400;font-size:20px;font-style:normal;fill:#262d64;stroke:none;">Cogn.</text><text transform="matrix(11.151,0,0,11.151,574.801,709.748)" style="font-family:'Alice';font-weight:400;font-size:20px;font-style:normal;fill:#ae3c27;stroke:none;">ai</text></g></svg>